# xmcd
#
# Track frame offsets: 
#        150
#        7859
#        29421
#        48665
#        69062
#        99194
#        104708
#        123227
#        143645
#        156164
#        188202
#        201466
#
# Disc length: 2927 seconds
#
# Revision: 0
# Processed by: cddbd v1.5.2PL0 Copyright (c) Steve Scherf et al.
# Submitted via: ExactAudioCopy v0.95a4
#
DISCID=9d0b6d0c
DTITLE=Faces do Subúrbio - Faces do Subúrbio
DYEAR=1998
DGENRE=Rap
TTITLE0=Introdução II
TTITLE1=Deus abençoe a todos
TTITLE2=Homens fardados
TTITLE3=Membros da periferia
TTITLE4=Não somos marginais
TTITLE5=Introdução I
TTITLE6=Críticas e críticas
TTITLE7=Crime acima da lei
TTITLE8=Improviso
TTITLE9=Acostumados com a violência
TTITLE10=Os tais
TTITLE11=P.P.O.R.
EXTD=
EXTT0=
EXTT1=
EXTT2=
EXTT3=
EXTT4=
EXTT5=
EXTT6=
EXTT7=
EXTT8=
EXTT9=
EXTT10=
EXTT11=
PLAYORDER=
